<svg width="29" height="31" viewBox="0 0 29 31" fill="none" xmlns="http://www.w3.org/2000/svg">
<g clip-path="url(#clip0_647_822)">
<path fill-rule="evenodd" clip-rule="evenodd" d="M17.9623 0.784518C17.9623 0.682511 17.9217 0.584683 17.8496 0.512554C17.7775 0.440424 17.6796 0.399902 17.5776 0.399902H6.80841C5.68634 0.399902 4.61022 0.845643 3.8168 1.63907C3.02338 2.43249 2.57764 3.5086 2.57764 4.63067V26.1691C2.57764 27.2912 3.02338 28.3673 3.8168 29.1607C4.61022 29.9542 5.68634 30.3999 6.80841 30.3999H22.193C23.3151 30.3999 24.3912 29.9542 25.1846 29.1607C25.978 28.3673 26.4238 27.2912 26.4238 26.1691V11.0107C26.4238 10.9087 26.3833 10.8108 26.3111 10.7387C26.239 10.6666 26.1412 10.6261 26.0392 10.6261H19.1161C18.8101 10.6261 18.5166 10.5045 18.3002 10.2881C18.0838 10.0717 17.9623 9.77823 17.9623 9.47221V0.784518ZM19.1161 15.7845C19.4221 15.7845 19.7156 15.9061 19.932 16.1225C20.1484 16.3389 20.2699 16.6323 20.2699 16.9384C20.2699 17.2444 20.1484 17.5379 19.932 17.7543C19.7156 17.9706 19.4221 18.0922 19.1161 18.0922H9.88533C9.57931 18.0922 9.28582 17.9706 9.06944 17.7543C8.85305 17.5379 8.73148 17.2444 8.73148 16.9384C8.73148 16.6323 8.85305 16.3389 9.06944 16.1225C9.28582 15.9061 9.57931 15.7845 9.88533 15.7845H19.1161ZM19.1161 21.9384C19.4221 21.9384 19.7156 22.0599 19.932 22.2763C20.1484 22.4927 20.2699 22.7862 20.2699 23.0922C20.2699 23.3982 20.1484 23.6917 19.932 23.9081C19.7156 24.1245 19.4221 24.2461 19.1161 24.2461H9.88533C9.57931 24.2461 9.28582 24.1245 9.06944 23.9081C8.85305 23.6917 8.73148 23.3982 8.73148 23.0922C8.73148 22.7862 8.85305 22.4927 9.06944 22.2763C9.28582 22.0599 9.57931 21.9384 9.88533 21.9384H19.1161Z" fill="black"/>
<path d="M20.2695 1.28293C20.2695 0.999854 20.5665 0.819855 20.7865 0.996778C20.9731 1.14755 21.1388 1.32293 21.2834 1.52293L25.9188 7.97985C26.0234 8.12755 25.9095 8.31832 25.728 8.31832H20.6541C20.5521 8.31832 20.4543 8.27779 20.3822 8.20566C20.3101 8.13354 20.2695 8.03571 20.2695 7.9337V1.28293Z" fill="black"/>
</g>
<defs>
<clipPath id="clip0_647_822">
<rect width="28" height="30" fill="white" transform="translate(0.333496 0.800049)"/>
</clipPath>
</defs>
</svg>
