<svg width="31" height="31" viewBox="0 0 31 31" fill="none" xmlns="http://www.w3.org/2000/svg">
<g clip-path="url(#clip0_718_313)">
<path d="M15.6665 1.69995C7.4165 1.69995 0.666504 7.09995 0.666504 13.7C0.666504 16.85 2.1665 19.85 4.8665 21.95C4.8665 22.85 4.2665 25.25 0.666504 28.7C0.666504 28.7 5.9165 28.7 10.4165 24.95C12.0665 25.4 13.8665 25.7 15.6665 25.7C23.9165 25.7 30.6665 20.3 30.6665 13.7C30.6665 7.09995 23.9165 1.69995 15.6665 1.69995ZM17.1665 19.7H14.1665V16.7H17.1665V19.7ZM19.8665 12.2C19.4165 12.8 18.8165 13.1 18.2165 13.4C17.7665 13.7 17.6165 13.85 17.4665 14.15C17.1665 14.45 17.1665 14.75 17.1665 15.2H14.1665C14.1665 14.45 14.3165 14 14.6165 13.55C14.9165 13.25 15.5165 12.8 16.2665 12.35C16.7165 12.2 17.0165 11.9 17.1665 11.6C17.3165 11.3 17.4665 10.85 17.4665 10.55C17.4665 10.1 17.3165 9.79995 17.0165 9.49995C16.7165 9.19995 16.2665 9.04995 15.8165 9.04995C15.3665 9.04995 15.0665 9.19995 14.7665 9.34995C14.4665 9.49995 14.3165 9.79995 14.3165 10.25H11.3165C11.4665 9.19995 11.9165 8.29995 12.6665 7.69995C13.4165 7.09995 14.4665 6.94995 15.8165 6.94995C17.1665 6.94995 18.3665 7.24995 19.1165 7.84995C19.8665 8.44995 20.3165 9.34995 20.3165 10.4C20.4665 11 20.3165 11.6 19.8665 12.2Z" fill="black"/>
</g>
<defs>
<clipPath id="clip0_718_313">
<rect width="30" height="30" fill="white" transform="translate(0.666504 0.199951)"/>
</clipPath>
</defs>
</svg>
