<svg width="31" height="31" viewBox="0 0 31 31" fill="none" xmlns="http://www.w3.org/2000/svg">
<g clip-path="url(#clip0_647_829)">
<path d="M25.6665 18.9334H18.9998V25.6001H12.3332V18.9334H5.6665V12.2668H12.3332V5.6001H18.9998V12.2668H25.6665M27.3332 0.600098H3.99984C2.14984 0.600098 0.666504 2.08343 0.666504 3.93343V27.2668C0.666504 28.1508 1.01769 28.9987 1.64281 29.6238C2.26794 30.2489 3.11578 30.6001 3.99984 30.6001H27.3332C28.2172 30.6001 29.0651 30.2489 29.6902 29.6238C30.3153 28.9987 30.6665 28.1508 30.6665 27.2668V3.93343C30.6665 3.04938 30.3153 2.20153 29.6902 1.57641C29.0651 0.951287 28.2172 0.600098 27.3332 0.600098Z" fill="black"/>
</g>
<defs>
<clipPath id="clip0_647_829">
<rect width="30" height="30" fill="white" transform="translate(0.666504 0.600098)"/>
</clipPath>
</defs>
</svg>
