<svg width="31" height="30" viewBox="0 0 31 30" fill="none" xmlns="http://www.w3.org/2000/svg">
<path d="M6.30641 29.0811H5.91642C4.50196 29.0811 3.79548 29.0811 3.35599 28.6416C2.9165 28.2051 2.9165 27.4971 2.9165 26.0827V24.4147C2.9165 23.6377 2.9165 23.2493 3.116 22.9013C3.31549 22.5533 3.61698 22.3793 4.21997 22.0283C8.18885 19.7199 13.8242 18.4209 17.5846 20.6633C17.8376 20.8143 18.0626 20.9983 18.2596 21.2153C18.4614 21.4359 18.6169 21.6947 18.7169 21.9765C18.8169 22.2583 18.8593 22.5573 18.8417 22.8557C18.8241 23.1542 18.7468 23.4461 18.6143 23.7141C18.4818 23.9822 18.297 24.2209 18.0706 24.4162C17.8902 24.5875 17.6701 24.7112 17.4301 24.7762C17.6101 24.7552 17.7826 24.7317 17.9476 24.7057C19.314 24.4882 20.4615 23.7562 21.5115 22.9628L24.2234 20.9153C24.7075 20.5641 25.2902 20.3749 25.8883 20.3749C26.4864 20.3749 27.0692 20.5641 27.5533 20.9153C28.4128 21.5648 28.6768 22.6343 28.1323 23.5072C27.4978 24.5242 26.6038 25.8247 25.7458 26.6197C24.8879 27.4146 23.6069 28.1256 22.5629 28.6296C21.405 29.1891 20.127 29.5101 18.8265 29.7216C16.1896 30.1476 13.4417 30.0816 10.8318 29.5446C9.3428 29.2381 7.8266 29.0818 6.30641 29.0811ZM6.79539 0.878898C6.24491 1.42938 6.03941 2.18836 5.96292 3.37483C6.84218 3.36279 7.68202 3.00805 8.30367 2.38612C8.92532 1.76419 9.27968 0.924188 9.29132 0.0449219C8.10635 0.12292 7.34588 0.328414 6.79539 0.878898ZM23.0369 0.878898C22.4864 0.328414 21.7275 0.12292 20.541 0.0464217C20.553 0.925682 20.9078 1.76552 21.5297 2.38717C22.1516 3.00882 22.9916 3.36318 23.8709 3.37483C23.7929 2.18986 23.5874 1.42938 23.0369 0.878898ZM23.0369 11.1206C22.4864 11.6711 21.7275 11.8766 20.541 11.9531C20.553 11.0738 20.9078 10.234 21.5297 9.61233C22.1516 8.99068 22.9916 8.63632 23.8709 8.62467C23.7929 9.80964 23.5874 10.5701 23.0369 11.1206ZM6.79539 11.1206C7.34588 11.6711 8.10485 11.8766 9.29132 11.9531C9.27928 11.0738 8.92454 10.234 8.30261 9.61233C7.68068 8.99068 6.84068 8.63632 5.96142 8.62467C6.03941 9.80964 6.24491 10.5701 6.79539 11.1206Z" fill="black"/>
<path fill-rule="evenodd" clip-rule="evenodd" d="M5.9165 5.62484C7.4083 5.62484 8.839 5.03222 9.89386 3.97736C10.9487 2.9225 11.5413 1.4918 11.5413 0H18.2911C18.2911 1.4918 18.8838 2.9225 19.9386 3.97736C20.9935 5.03222 22.4242 5.62484 23.916 5.62484V6.37482C22.4242 6.37482 20.9935 6.96743 19.9386 8.02229C18.8838 9.07715 18.2911 10.5079 18.2911 11.9997H11.5413C11.5413 10.5079 10.9487 9.07715 9.89386 8.02229C8.839 6.96743 7.4083 6.37482 5.9165 6.37482V5.62484ZM14.9162 7.49978C15.3141 7.49978 15.6956 7.34175 15.9769 7.06046C16.2582 6.77916 16.4162 6.39764 16.4162 5.99983C16.4162 5.60201 16.2582 5.22049 15.9769 4.9392C15.6956 4.6579 15.3141 4.49987 14.9162 4.49987C14.5184 4.49987 14.1369 4.6579 13.8556 4.9392C13.5743 5.22049 13.4163 5.60201 13.4163 5.99983C13.4163 6.39764 13.5743 6.77916 13.8556 7.06046C14.1369 7.34175 14.5184 7.49978 14.9162 7.49978Z" fill="black"/>
</svg>
