<svg width="30" height="30" viewBox="0 0 30 30" fill="none" xmlns="http://www.w3.org/2000/svg">
<path d="M27.4904 20.6104L28.509 14.7156C28.5688 14.3701 28.5524 14.0157 28.4609 13.6772C28.3694 13.3387 28.2051 13.0243 27.9794 12.756C27.7537 12.4876 27.4721 12.2718 27.1543 12.1237C26.8365 11.9755 26.4902 11.8986 26.1396 11.8982H18.654C18.4794 11.8983 18.3067 11.8603 18.1482 11.7869C17.9897 11.7135 17.849 11.6065 17.736 11.4733C17.623 11.34 17.5403 11.1838 17.4938 11.0154C17.4472 10.8471 17.4379 10.6706 17.4664 10.4982L18.4243 4.654C18.579 3.70506 18.5348 2.73431 18.2943 1.8034C18.1905 1.4191 17.9915 1.06714 17.7158 0.780028C17.44 0.492917 17.0964 0.279907 16.7166 0.160665L16.5071 0.0927586C16.0333 -0.0588003 15.5196 -0.0236556 15.0709 0.191005C14.5797 0.427953 14.2214 0.859948 14.0885 1.37285L13.4007 4.02262C13.1822 4.86596 12.864 5.6803 12.453 6.44844C11.8534 7.57105 10.9258 8.47116 9.96067 9.30192L7.8816 11.0935C7.59318 11.3427 7.36791 11.6568 7.22426 12.0099C7.08061 12.363 7.02267 12.7451 7.05518 13.1249L8.22836 26.6959C8.28006 27.2961 8.55494 27.8551 8.99871 28.2624C9.44248 28.6698 10.0229 28.896 10.6253 28.8963H17.3407C22.3715 28.8963 26.664 25.3912 27.4904 20.6104Z" fill="black"/>
<path fill-rule="evenodd" clip-rule="evenodd" d="M2.49256 10.8145C2.77178 10.8023 3.04492 10.8985 3.25492 11.0829C3.46493 11.2673 3.59555 11.5257 3.6195 11.8042L5.02096 28.038C5.0447 28.2797 5.01891 28.5238 4.94517 28.7552C4.87143 28.9867 4.75128 29.2007 4.59206 29.3841C4.43284 29.5676 4.2379 29.7166 4.01914 29.8222C3.80038 29.9278 3.56239 29.9877 3.31971 29.9982C3.07703 30.0087 2.83475 29.9697 2.60767 29.8834C2.38059 29.7972 2.17348 29.6655 1.99898 29.4965C1.82449 29.3275 1.68627 29.1248 1.59277 28.9006C1.49928 28.6764 1.45246 28.4355 1.45519 28.1926V11.8967C1.45531 11.6174 1.56327 11.3489 1.75655 11.1473C1.94984 10.9456 2.21351 10.8264 2.49256 10.8145Z" fill="black"/>
</svg>
