<svg width="31" height="31" viewBox="0 0 31 31" fill="none" xmlns="http://www.w3.org/2000/svg">
<g clip-path="url(#clip0_647_843)">
<path d="M28.3095 4.74147L15.3337 0.199951L2.35791 4.74147V15.2C2.35791 20.5551 5.64597 24.2986 8.71085 26.6225C10.5613 28.0115 12.5909 29.1441 14.7446 29.9897C14.8916 30.0451 15.0396 30.0979 15.1884 30.148L15.3337 30.1999L15.4816 30.148C15.7653 30.0495 16.0466 29.9439 16.325 29.8314C18.3308 29.0051 20.2231 27.9268 21.9565 26.6225C25.0227 24.2986 28.3095 20.5551 28.3095 15.2V4.74147ZM14.0374 19.6312L8.53438 14.1256L10.3692 12.2895L14.0387 15.9603L21.3791 8.61993L23.2152 10.4547L14.0374 19.6312Z" fill="black"/>
</g>
<defs>
<clipPath id="clip0_647_843">
<rect width="30" height="30" fill="white" transform="translate(0.333496 0.199951)"/>
</clipPath>
</defs>
</svg>
