<svg width="30" height="31" viewBox="0 0 30 31" fill="none" xmlns="http://www.w3.org/2000/svg">
<path fill-rule="evenodd" clip-rule="evenodd" d="M29.7683 12.9883L26.8155 6.9415C26.5435 6.38422 26.1204 5.91456 25.5944 5.58603C25.0685 5.2575 24.4608 5.08332 23.8407 5.08333H22.8741V12.9883H29.7683ZM20.1155 4.02845C19.8052 3.65068 19.4152 3.34632 18.9733 3.13722C18.5315 2.92812 18.0488 2.81948 17.56 2.81909H3.31028C2.43234 2.81909 1.59036 3.16785 0.96956 3.78865C0.348761 4.40945 0 5.25143 0 6.12938V20.752C0 21.6299 0.348761 22.4719 0.96956 23.0927C1.59036 23.7135 2.43234 24.0623 3.31028 24.0623H3.98117C4.05016 25.1227 4.52007 26.1172 5.29552 26.8438C6.07097 27.5705 7.09385 27.9748 8.15654 27.9748C9.21923 27.9748 10.2421 27.5705 11.0176 26.8438C11.793 26.1172 12.2629 25.1227 12.3319 24.0623H17.966C18.0359 25.1594 18.5348 26.185 19.3548 26.9173C20.1748 27.6495 21.2501 28.0297 22.3481 27.9754C23.4462 27.9212 24.4787 27.437 25.2226 26.6275C25.9665 25.818 26.3619 24.7483 26.3234 23.6496H26.6897C27.5677 23.6496 28.4096 23.3008 29.0304 22.68C29.6512 22.0592 30 21.2173 30 20.3393V15.7469H21.4948C21.129 15.7469 20.7781 15.6015 20.5195 15.3429C20.2608 15.0842 20.1155 14.7334 20.1155 14.3676V4.02845Z" fill="black"/>
</svg>
